<svg width="36" height="36" viewBox="0 0 36 36" fill="none" xmlns="http://www.w3.org/2000/svg">
<circle cx="18" cy="18" r="17.5" stroke="#0B1437"/>
<path d="M25.3471 12H10.6532C10.3284 12 10.017 12.1355 9.78736 12.3766C9.55772 12.6177 9.42871 12.9447 9.42871 13.2857V23.5714C9.42871 23.9124 9.55772 24.2394 9.78736 24.4806C10.017 24.7217 10.3284 24.8571 10.6532 24.8571H25.3471C25.6718 24.8571 25.9833 24.7217 26.2129 24.4806C26.4426 24.2394 26.5716 23.9124 26.5716 23.5714V13.2857C26.5716 12.9447 26.4426 12.6177 26.2129 12.3766C25.9833 12.1355 25.6718 12 25.3471 12ZM24.0001 13.2857L18.0001 17.6443L12.0001 13.2857H24.0001ZM10.6532 23.5714V13.8707L17.6512 18.9557C17.7536 19.0304 17.8754 19.0704 18.0001 19.0704C18.1249 19.0704 18.2466 19.0304 18.3491 18.9557L25.3471 13.8707V23.5714H10.6532Z" fill="#0B1437"/>
</svg>
