<svg width="154" height="28" viewBox="0 0 154 28" fill="none" xmlns="http://www.w3.org/2000/svg">
<path d="M0 26.6274V8.19089C0 7.93757 0.0810788 7.73114 0.243234 7.57166C0.414928 7.40275 0.624776 7.31834 0.872783 7.31834H3.6342C3.88221 7.31834 4.08729 7.40275 4.24944 7.57166C4.42112 7.73114 4.50698 7.93757 4.50698 8.19089V8.61308C6.01406 7.56228 7.7644 7.03683 9.758 7.03683C11.7515 7.03683 13.416 7.73114 14.7514 9.11977C16.0868 10.499 16.7545 12.4787 16.7545 15.0588C16.7545 17.6296 16.063 19.6 14.6799 20.9698C13.2968 22.3396 11.432 23.0245 9.08553 23.0245C7.87412 23.0245 6.49579 22.7853 4.95052 22.3068V26.6274C4.95052 26.8807 4.8647 27.0871 4.69298 27.2467C4.53084 27.4155 4.32577 27.5 4.07775 27.5H0.872783C0.624776 27.5 0.414928 27.4155 0.243234 27.2467C0.0810788 27.0871 0 26.8807 0 26.6274ZM4.95052 19.0558C6.18099 19.4405 7.21593 19.6328 8.05533 19.6328C9.36213 19.6328 10.2874 19.2669 10.8311 18.535C11.3843 17.8032 11.6609 16.6351 11.6609 15.0307C11.6609 13.4263 11.3986 12.2629 10.874 11.5404C10.3589 10.8086 9.58153 10.4427 8.5418 10.4427C7.51165 10.4427 6.31453 10.8649 4.95052 11.7093V19.0558ZM17.0573 16.2551V8.19089C17.0573 7.93757 17.1384 7.73114 17.3005 7.57166C17.4722 7.40275 17.6821 7.31834 17.9301 7.31834H21.1351C21.3831 7.31834 21.5881 7.40275 21.7503 7.57166C21.922 7.73114 22.0078 7.93757 22.0078 8.19089V16.2551C22.0078 18.5069 22.914 19.6328 24.7263 19.6328C25.9186 19.6328 27.2016 18.9573 28.5751 17.6062V8.19089C28.5751 7.93757 28.6562 7.73114 28.8184 7.57166C28.9901 7.40275 29.1999 7.31834 29.4479 7.31834H32.6386C32.8961 7.31834 33.106 7.40275 33.2681 7.57166C33.4398 7.73114 33.5257 7.93757 33.5257 8.19089V21.8846C33.5257 22.1285 33.4398 22.3349 33.2681 22.5038C33.106 22.6633 32.8961 22.7431 32.6386 22.7431H29.4479C29.1999 22.7431 28.9901 22.6633 28.8184 22.5038C28.6562 22.3349 28.5751 22.1285 28.5751 21.8846V20.9839C26.9345 22.3443 25.1842 23.0245 23.3242 23.0245C21.4737 23.0245 19.9665 22.471 18.8029 21.3639C17.6391 20.2473 17.0573 18.5444 17.0573 16.2551ZM45.5609 10.893L43.3575 10.8086C42.0698 10.8086 40.8393 11.5029 39.666 12.8915V21.8846C39.666 22.1379 39.5802 22.3443 39.4085 22.5038C39.2464 22.6633 39.0413 22.7431 38.7933 22.7431H35.5883C35.3308 22.7431 35.1209 22.6633 34.9588 22.5038C34.7966 22.3443 34.7155 22.1379 34.7155 21.8846V8.19089C34.7155 7.93757 34.7966 7.73114 34.9588 7.57166C35.1304 7.40275 35.3403 7.31834 35.5883 7.31834H38.7933C39.0508 7.31834 39.2607 7.40275 39.4228 7.57166C39.585 7.73114 39.666 7.93757 39.666 8.19089V9.07754C40.639 8.38323 41.5738 7.87187 42.4704 7.54347C43.3765 7.20574 44.5593 7.03683 46.0188 7.03683C46.2761 7.03683 46.4863 7.12129 46.6482 7.29015C46.8198 7.44969 46.9059 7.6514 46.9059 7.89534V10.0346C46.9059 10.2879 46.8198 10.4943 46.6482 10.6538C46.4863 10.8133 46.2761 10.893 46.0188 10.893H45.5609ZM47.7952 20.9698C46.3263 19.6 45.5918 17.6296 45.5918 15.0588C45.5918 12.4787 46.331 10.499 47.8096 9.11977C49.2882 7.73114 51.3389 7.03683 53.9617 7.03683C56.585 7.03683 58.6311 7.71239 60.0999 9.06345C61.5688 10.4051 62.3032 12.3332 62.3032 14.8477V15.6499C62.3032 15.9033 62.2176 16.1144 62.046 16.2833C61.8837 16.4428 61.6739 16.5225 61.4162 16.5225H50.6427C50.738 17.6766 51.072 18.5163 51.6441 19.0417C52.2259 19.5671 53.151 19.8298 54.4199 19.8298C55.6883 19.8298 56.5567 19.5484 57.0236 18.9854C57.4911 18.4225 58.0683 18.1363 58.7553 18.1269H60.8869C61.1446 18.1269 61.3544 18.2113 61.5167 18.3802C61.6883 18.5397 61.7739 18.7462 61.7739 18.9995C61.7739 21.6922 59.165 23.0339 53.9478 23.0245C51.3147 23.0245 49.264 22.3396 47.7952 20.9698ZM50.6138 13.553H57.2669C57.1715 11.3387 56.065 10.2316 53.9478 10.2316C51.8394 10.2316 50.7282 11.3387 50.6138 13.553ZM69.6335 11.5827C69.6335 8.55209 72.1186 7.03683 77.088 7.03683C82.315 7.03683 84.929 8.38323 84.929 11.076C84.929 11.3199 84.8476 11.5263 84.6857 11.6953C84.5234 11.8547 84.3136 11.9345 84.0559 11.9345H81.9243C81.2373 11.9345 80.6601 11.653 80.1926 11.0901C79.7257 10.5177 78.8052 10.2316 77.4312 10.2316C75.5428 10.2316 74.5987 10.6819 74.5987 11.5827C74.5987 12.0048 74.9656 12.3567 75.7001 12.6382C76.4443 12.9196 77.3456 13.1683 78.4043 13.3841C79.4726 13.5905 80.5364 13.8579 81.595 14.1863C82.6536 14.5147 83.5504 15.0401 84.2848 15.7625C85.029 16.4756 85.4011 17.381 85.4011 18.4787C85.4011 21.5093 82.7778 23.0245 77.5317 23.0245C72.2851 23.0245 69.6623 21.6828 69.6623 18.9995C69.6623 18.7462 69.7433 18.5397 69.9056 18.3802C70.0772 18.2113 70.2916 18.1269 70.5493 18.1269H72.6814C73.3679 18.1269 73.9452 18.4131 74.4126 18.9854C74.8801 19.5484 75.8005 19.8298 77.174 19.8298C79.3582 19.8298 80.4503 19.3795 80.4503 18.4787C80.4503 18.0565 80.0782 17.7047 79.3345 17.4232C78.6001 17.1417 77.6987 16.8931 76.6303 16.6773C75.5619 16.4521 74.4982 16.1801 73.4396 15.861C72.3903 15.5326 71.4935 15.0072 70.7498 14.2848C70.0056 13.5623 69.6335 12.6616 69.6335 11.5827ZM85.7178 16.2551V8.19089C85.7178 7.93757 85.7992 7.73114 85.9611 7.57166C86.1327 7.40275 86.3429 7.31834 86.5908 7.31834H89.7955C90.0439 7.31834 90.249 7.40275 90.4109 7.57166C90.5825 7.73114 90.6685 7.93757 90.6685 8.19089V16.2551C90.6685 18.5069 91.5746 19.6328 93.3872 19.6328C94.5793 19.6328 95.8621 18.9573 97.236 17.6062V8.19089C97.236 7.93757 97.317 7.73114 97.4793 7.57166C97.6509 7.40275 97.8607 7.31834 98.1086 7.31834H101.299C101.557 7.31834 101.767 7.40275 101.929 7.57166C102.101 7.73114 102.186 7.93757 102.186 8.19089V21.8846C102.186 22.1285 102.101 22.3349 101.929 22.5038C101.767 22.6633 101.557 22.7431 101.299 22.7431H98.1086C97.8607 22.7431 97.6509 22.6633 97.4793 22.5038C97.317 22.3349 97.236 22.1285 97.236 21.8846V20.9839C95.5951 22.3443 93.8448 23.0245 91.9848 23.0245C90.1346 23.0245 88.6271 22.471 87.4634 21.3639C86.2997 20.2473 85.7178 18.5444 85.7178 16.2551ZM119.186 22.1238C119.186 22.5366 118.939 22.7431 118.442 22.7431H115.738C114.823 22.7431 114.093 22.3021 113.549 21.4201L111.732 18.5069C110.95 17.259 109.815 16.6351 108.327 16.6351V21.8846C108.327 22.1379 108.241 22.3443 108.069 22.5038C107.907 22.6633 107.702 22.7431 107.454 22.7431H104.249C103.991 22.7431 103.782 22.6633 103.619 22.5038C103.457 22.3443 103.376 22.1379 103.376 21.8846V3.43398C103.376 3.18065 103.457 2.97424 103.619 2.81474C103.791 2.64585 104.001 2.56141 104.249 2.56141H107.454C107.711 2.56141 107.921 2.64585 108.084 2.81474C108.246 2.97424 108.327 3.18065 108.327 3.43398V13.4263C109.986 13.4263 111.122 12.793 111.732 11.5263L113.105 8.65531C113.296 8.25188 113.578 7.92819 113.95 7.68425C114.322 7.44031 114.722 7.31834 115.152 7.31834H117.856C118.333 7.31834 118.571 7.50129 118.571 7.86721C118.571 8.07359 118.495 8.33633 118.342 8.65531L116.497 12.4834C116.182 13.1213 115.752 13.6702 115.209 14.13C114.665 14.5897 114.079 14.8853 113.449 15.0166C114.622 15.3638 115.638 16.2082 116.497 17.5499L118.929 21.4201C119.091 21.6922 119.177 21.9268 119.186 22.1238ZM118.917 16.2551V8.19089C118.917 7.60917 119.208 7.31834 119.79 7.31834H122.995C123.576 7.31834 123.867 7.60917 123.867 8.19089V16.2551C123.867 18.5069 124.773 19.6328 126.586 19.6328C127.778 19.6328 129.061 18.9573 130.435 17.6062V8.19089C130.435 7.60917 130.726 7.31834 131.307 7.31834H134.498C135.089 7.31834 135.385 7.60917 135.385 8.19089V21.8846C135.385 22.4569 135.089 22.7431 134.498 22.7431H131.307C130.726 22.7431 130.435 22.4569 130.435 21.8846V20.9839C128.775 22.3443 127.106 23.0245 125.427 23.0245C123.395 23.0245 121.831 22.4991 120.734 21.4483C119.523 20.2567 118.917 18.5256 118.917 16.2551ZM125.856 4.26432L126.557 1.61847C126.929 0.53949 127.554 0 128.432 0H129.734C130.354 0 130.764 0.19234 130.964 0.577019C131.04 0.727141 131.079 0.914791 131.079 1.13997C131.079 1.36515 130.979 1.61847 130.778 1.89995L129.233 4.55989C128.699 5.44183 128.112 5.88282 127.473 5.88282H126.8C126.095 5.88282 125.742 5.57318 125.742 4.95394C125.742 4.76627 125.78 4.53642 125.856 4.26432ZM136.575 21.8846V8.19089C136.575 7.93757 136.656 7.73114 136.818 7.57166C136.99 7.40275 137.2 7.31834 137.448 7.31834H140.653C140.901 7.31834 141.106 7.40275 141.268 7.57166C141.44 7.73114 141.526 7.93757 141.526 8.19089V9.07754C143.166 7.71705 144.912 7.03683 146.762 7.03683C148.622 7.03683 150.134 7.59508 151.298 8.71163C152.462 9.81875 153.043 11.517 153.043 13.8063V21.8846C153.043 22.1285 152.957 22.3349 152.786 22.5038C152.624 22.6633 152.414 22.7431 152.156 22.7431H148.966C148.718 22.7431 148.508 22.6633 148.336 22.5038C148.174 22.3349 148.093 22.1285 148.093 21.8846V13.8063C148.093 11.5639 147.182 10.4427 145.36 10.4427C144.168 10.4427 142.889 11.1135 141.526 12.4552V21.8846C141.526 22.1285 141.44 22.3349 141.268 22.5038C141.106 22.6633 140.901 22.7431 140.653 22.7431H137.448C137.2 22.7431 136.99 22.6633 136.818 22.5038C136.656 22.3349 136.575 22.1285 136.575 21.8846Z" fill="#0B1437"/>
</svg>
