<svg width="36" height="36" viewBox="0 0 36 36" fill="none" xmlns="http://www.w3.org/2000/svg">
<circle cx="18" cy="18" r="17.5" stroke="#848484"/>
<path d="M26.6018 13.8217L26.6243 13.9687C26.4068 13.197 25.8195 12.6015 25.0733 12.3848L25.0575 12.381C23.6543 12 18.0076 12 18.0076 12C18.0076 12 12.3752 11.9925 10.9577 12.381C10.1972 12.6015 9.60921 13.197 9.39547 13.953L9.39172 13.9687C8.86747 16.707 8.86372 19.9972 9.41497 22.9289L9.39172 22.7804C9.60921 23.5521 10.1965 24.1476 10.9427 24.3644L10.9584 24.3681C12.3602 24.7499 18.0084 24.7499 18.0084 24.7499C18.0084 24.7499 23.64 24.7499 25.0583 24.3681C25.8195 24.1476 26.4075 23.5521 26.6213 22.7961L26.625 22.7804C26.8635 21.5069 27 20.0414 27 18.5444C27 18.4897 27 18.4342 26.9993 18.3787C27 18.3277 27 18.2669 27 18.2062C27 16.7085 26.8635 15.243 26.6018 13.8217ZM16.2061 21.1131V15.6435L20.9056 18.3824L16.2061 21.1131Z" fill="white"/>
</svg>
