<svg width="20" height="20" viewBox="0 0 20 20" fill="none" xmlns="http://www.w3.org/2000/svg">
<path d="M14.2832 12.436L12.2411 12.0263C12.0245 11.9824 11.8668 11.7901 11.8668 11.5689V11.036C13.9061 10.8419 14.2001 10.4247 14.2001 10C14.2001 8.74467 13.3657 5.82987 13.2276 5.35573C13.2108 4.62307 13.0764 4.21053 12.7413 3.85027C12.5043 3.5936 12.1561 3.53387 11.8752 3.48627C11.7651 3.46667 11.6129 3.44147 11.5569 3.41067C11.0595 3.14093 10.5676 3.0112 9.98053 3C8.75133 3.0504 7.24026 3.83253 6.7232 5.2624C6.68586 5.39587 5.80013 8.5524 5.80013 10C5.80013 10.6039 6.48333 10.9221 8.13346 11.0677V11.5689C8.13346 11.7901 7.97573 11.9824 7.75826 12.0263L5.71893 12.4351C4.41413 12.6917 3.4668 13.8463 3.4668 15.18V16.0667C3.4668 16.5809 3.88586 17 4.40013 17H15.6001C16.1144 17 16.5335 16.5809 16.5335 16.0667V15.18C16.5335 13.8463 15.5861 12.6917 14.2832 12.436Z" fill="white"/>
</svg>
