<svg width="268" height="48" viewBox="0 0 268 48" fill="none" xmlns="http://www.w3.org/2000/svg">
<path d="M0 46.4757V14.2956C0 13.8534 0.139861 13.4931 0.419578 13.2148C0.715751 12.9199 1.07774 12.7726 1.50555 12.7726H6.269C6.69681 12.7726 7.05057 12.9199 7.33029 13.2148C7.62643 13.4931 7.77454 13.8534 7.77454 14.2956V15.0325C10.3743 13.1984 13.3936 12.2812 16.8325 12.2812C20.2714 12.2812 23.1426 13.4931 25.4462 15.9169C27.7498 18.3242 28.9015 21.7798 28.9015 26.2833C28.9015 30.7705 27.7086 34.2096 25.3228 36.6006C22.937 38.9916 19.7202 40.1871 15.6725 40.1871C13.5829 40.1871 11.2052 39.7695 8.53964 38.9343V46.4757C8.53964 46.9179 8.39161 47.2782 8.09539 47.5566C7.8157 47.8514 7.46195 47.9988 7.03412 47.9988H1.50555C1.07774 47.9988 0.715751 47.8514 0.419578 47.5566C0.139861 47.2782 0 46.9179 0 46.4757ZM8.53964 33.2597C10.6622 33.9312 12.4475 34.267 13.8954 34.267C16.1497 34.267 17.7457 33.6283 18.6836 32.3508C19.6379 31.0735 20.1151 29.0346 20.1151 26.2342C20.1151 23.4337 19.6626 21.4031 18.7577 20.1421C17.8692 18.8647 16.5281 18.226 14.7346 18.226C12.9576 18.226 10.8926 18.9629 8.53964 20.4368V33.2597ZM29.4239 28.3713V14.2956C29.4239 13.8534 29.5637 13.4931 29.8434 13.2148C30.1396 12.9199 30.5016 12.7726 30.9294 12.7726H36.458C36.8858 12.7726 37.2395 12.9199 37.5192 13.2148C37.8154 13.4931 37.9635 13.8534 37.9635 14.2956V28.3713C37.9635 32.3017 39.5267 34.267 42.6529 34.267C44.7097 34.267 46.9227 33.0878 49.2921 30.7296V14.2956C49.2921 13.8534 49.432 13.4931 49.7117 13.2148C50.0079 12.9199 50.3699 12.7726 50.7977 12.7726H56.3016C56.7458 12.7726 57.1078 12.9199 57.3875 13.2148C57.6837 13.4931 57.8318 13.8534 57.8318 14.2956V38.1973C57.8318 38.6231 57.6837 38.9834 57.3875 39.2782C57.1078 39.5566 56.7458 39.6958 56.3016 39.6958H50.7977C50.3699 39.6958 50.0079 39.5566 49.7117 39.2782C49.432 38.9834 49.2921 38.6231 49.2921 38.1973V36.6252C46.462 38.9998 43.4427 40.1871 40.2342 40.1871C37.0421 40.1871 34.4423 39.2209 32.4349 37.2885C30.4275 35.3396 29.4239 32.3673 29.4239 28.3713ZM78.5925 19.012L74.7916 18.8647C72.5704 18.8647 70.4478 20.0765 68.4239 22.5003V38.1973C68.4239 38.6395 68.2758 38.9998 67.9797 39.2782C67.7 39.5566 67.3462 39.6958 66.9184 39.6958H61.3898C60.9456 39.6958 60.5835 39.5566 60.3039 39.2782C60.0242 38.9998 59.8842 38.6395 59.8842 38.1973V14.2956C59.8842 13.8534 60.0242 13.4931 60.3039 13.2148C60.6 12.9199 60.962 12.7726 61.3898 12.7726H66.9184C67.3626 12.7726 67.7246 12.9199 68.0043 13.2148C68.2841 13.4931 68.4239 13.8534 68.4239 14.2956V15.8432C70.1023 14.6313 71.7148 13.7388 73.2614 13.1656C74.8245 12.5761 76.8649 12.2812 79.3823 12.2812C79.8263 12.2812 80.1889 12.4287 80.4681 12.7234C80.7642 13.0019 80.9126 13.354 80.9126 13.7797V17.5136C80.9126 17.9558 80.7642 18.3161 80.4681 18.5945C80.1889 18.8729 79.8263 19.012 79.3823 19.012H78.5925ZM82.4467 36.6006C79.9129 34.2096 78.6459 30.7705 78.6459 26.2833C78.6459 21.7798 79.921 18.3242 82.4716 15.9169C85.0222 13.4931 88.5597 12.2812 93.084 12.2812C97.6092 12.2812 101.139 13.4604 103.672 15.8186C106.206 18.1605 107.473 21.5259 107.473 25.9149V27.315C107.473 27.7572 107.325 28.1257 107.029 28.4205C106.749 28.6989 106.387 28.838 105.943 28.838H87.3586C87.523 30.8524 88.0991 32.3181 89.086 33.2352C90.0897 34.1523 91.6856 34.6108 93.8743 34.6108C96.0623 34.6108 97.5602 34.1195 98.3658 33.1369C99.1721 32.1544 100.168 31.6549 101.353 31.6385H105.03C105.474 31.6385 105.836 31.7858 106.116 32.0807C106.412 32.359 106.56 32.7194 106.56 33.1615C106.56 37.8616 102.06 40.2034 93.0599 40.1871C88.5179 40.1871 84.9805 38.9916 82.4467 36.6006ZM87.3088 23.6549H98.7854C98.6209 19.79 96.7122 17.8575 93.0599 17.8575C89.423 17.8575 87.5062 19.79 87.3088 23.6549Z" fill="#0B1437"/>
<path d="M124.117 20.217C124.117 14.9273 128.404 12.2825 136.976 12.2825C145.993 12.2825 150.502 14.6325 150.502 19.3326C150.502 19.7584 150.361 20.1187 150.082 20.4135C149.802 20.6919 149.44 20.8311 148.996 20.8311H145.319C144.134 20.8311 143.138 20.3398 142.332 19.3572C141.526 18.3582 139.938 17.8587 137.568 17.8587C134.311 17.8587 132.682 18.6448 132.682 20.217C132.682 20.9539 133.315 21.5681 134.582 22.0594C135.866 22.5506 137.421 22.9846 139.247 23.3613C141.09 23.7216 142.925 24.1883 144.751 24.7615C146.577 25.3347 148.124 26.2518 149.391 27.5128C150.674 28.7574 151.316 30.3378 151.316 32.2538C151.316 37.5435 146.791 40.1883 137.742 40.1883C128.691 40.1883 124.167 37.8464 124.167 33.1627C124.167 32.7206 124.307 32.3603 124.587 32.0819C124.883 31.7871 125.252 31.6397 125.697 31.6397H129.375C130.559 31.6397 131.555 32.1391 132.361 33.1381C133.167 34.1208 134.755 34.612 137.125 34.612C140.892 34.612 142.776 33.826 142.776 32.2538C142.776 31.5168 142.134 30.9027 140.851 30.4115C139.585 29.9201 138.03 29.4862 136.187 29.1095C134.344 28.7164 132.509 28.2415 130.683 27.6847C128.873 27.1115 127.326 26.1944 126.043 24.9334C124.759 23.6724 124.117 22.1003 124.117 20.217ZM151.863 28.3725V14.2968C151.863 13.8547 152.003 13.4944 152.282 13.216C152.578 12.9212 152.941 12.7738 153.369 12.7738H158.897C159.325 12.7738 159.679 12.9212 159.958 13.216C160.254 13.4944 160.403 13.8547 160.403 14.2968V28.3725C160.403 32.3029 161.966 34.2682 165.092 34.2682C167.149 34.2682 169.361 33.089 171.732 30.7308V14.2968C171.732 13.8547 171.871 13.4944 172.151 13.216C172.447 12.9212 172.809 12.7738 173.237 12.7738H178.741C179.185 12.7738 179.547 12.9212 179.826 13.216C180.123 13.4944 180.271 13.8547 180.271 14.2968V38.1985C180.271 38.6243 180.123 38.9846 179.826 39.2794C179.547 39.5578 179.185 39.697 178.741 39.697H173.237C172.809 39.697 172.447 39.5578 172.151 39.2794C171.871 38.9846 171.732 38.6243 171.732 38.1985V36.6264C168.901 39.001 165.882 40.1883 162.673 40.1883C159.482 40.1883 156.881 39.2221 154.874 37.2897C152.866 35.3408 151.863 32.3685 151.863 28.3725ZM209.596 38.6162C209.596 39.3367 209.168 39.697 208.312 39.697H203.648C202.069 39.697 200.81 38.9273 199.872 37.3879L196.737 32.3029C195.388 30.1249 193.43 29.0358 190.863 29.0358V38.1985C190.863 38.6407 190.715 39.001 190.419 39.2794C190.139 39.5578 189.786 39.697 189.357 39.697H183.829C183.385 39.697 183.023 39.5578 182.743 39.2794C182.464 39.001 182.323 38.6407 182.323 38.1985V5.99385C182.323 5.55168 182.464 5.1914 182.743 4.913C183.039 4.61822 183.402 4.47083 183.829 4.47083H189.357C189.802 4.47083 190.164 4.61822 190.444 4.913C190.724 5.1914 190.863 5.55168 190.863 5.99385V23.435C193.726 23.435 195.684 22.3296 196.737 20.1187L199.106 15.1074C199.435 14.4033 199.921 13.8383 200.563 13.4125C201.204 12.9867 201.895 12.7738 202.636 12.7738H207.301C208.124 12.7738 208.535 13.0932 208.535 13.7319C208.535 14.0921 208.403 14.5507 208.14 15.1074L204.956 21.7891C204.413 22.9027 203.672 23.8607 202.734 24.6632C201.797 25.4657 200.785 25.9816 199.699 26.2108C201.723 26.8168 203.475 28.2907 204.956 30.6325L209.152 37.3879C209.432 37.8628 209.579 38.2722 209.596 38.6162ZM209.131 28.3725V14.2968C209.131 13.2815 209.633 12.7738 210.637 12.7738H216.166C217.168 12.7738 217.671 13.2815 217.671 14.2968V28.3725C217.671 32.3029 219.234 34.2682 222.36 34.2682C224.417 34.2682 226.63 33.089 229 30.7308V14.2968C229 13.2815 229.501 12.7738 230.505 12.7738H236.009C237.029 12.7738 237.539 13.2815 237.539 14.2968V38.1985C237.539 39.1975 237.029 39.697 236.009 39.697H230.505C229.501 39.697 229 39.1975 229 38.1985V36.6264C226.136 39.001 223.257 40.1883 220.361 40.1883C216.856 40.1883 214.158 39.2712 212.265 37.437C210.176 35.3572 209.131 32.3357 209.131 28.3725ZM221.101 7.44318L222.311 2.82497C222.952 0.941655 224.03 0 225.544 0H227.79C228.859 0 229.567 0.335721 229.913 1.00716C230.044 1.26919 230.11 1.59673 230.11 1.98976C230.11 2.3828 229.938 2.82497 229.592 3.31628L226.926 7.95908C226.004 9.49846 224.993 10.2682 223.89 10.2682H222.73C221.513 10.2682 220.904 9.72773 220.904 8.64688C220.904 8.31931 220.97 7.91812 221.101 7.44318ZM239.591 38.1985V14.2968C239.591 13.8547 239.732 13.4944 240.011 13.216C240.307 12.9212 240.67 12.7738 241.097 12.7738H246.625C247.054 12.7738 247.408 12.9212 247.687 13.216C247.983 13.4944 248.131 13.8547 248.131 14.2968V15.8444C250.961 13.4698 253.972 12.2825 257.165 12.2825C260.373 12.2825 262.981 13.2569 264.988 15.2057C266.996 17.1382 267.999 20.1023 267.999 24.0982V38.1985C267.999 38.6243 267.851 38.9846 267.555 39.2794C267.276 39.5578 266.914 39.697 266.469 39.697H260.965C260.538 39.697 260.176 39.5578 259.879 39.2794C259.6 38.9846 259.46 38.6243 259.46 38.1985V24.0982C259.46 20.1842 257.888 18.2272 254.746 18.2272C252.689 18.2272 250.484 19.3982 248.131 21.74V38.1985C248.131 38.6243 247.983 38.9846 247.687 39.2794C247.408 39.5578 247.054 39.697 246.625 39.697H241.097C240.67 39.697 240.307 39.5578 240.011 39.2794C239.732 38.9846 239.591 38.6243 239.591 38.1985Z" fill="#0B1437"/>
</svg>
