<svg width="19" height="18" viewBox="0 0 19 18" fill="none" xmlns="http://www.w3.org/2000/svg">
<path d="M17.9341 6.04671H16.0141L13.3418 1.26479C13.1976 1.00677 12.86 0.908335 12.5876 1.04494C12.3152 1.18154 12.2113 1.50148 12.3555 1.7595L14.7514 6.04671H4.24537L6.64125 1.7595C6.78544 1.50148 6.68154 1.18154 6.40919 1.04494C6.13691 0.90837 5.79912 1.00677 5.65493 1.26479L2.98258 6.04671H1.06593C0.478185 6.04671 0 6.49972 0 7.05653V8.23088C0 8.76425 0.438826 9.20208 0.992419 9.23802L2.86446 16.6115C2.92477 16.8491 3.14909 17.0165 3.40701 17.0165H15.5893C15.8471 17.0165 16.0714 16.8492 16.1318 16.6118L18.0082 9.23795C18.5615 9.20172 19 8.76404 19 8.23088V7.05653C19 6.49972 18.5219 6.04671 17.9341 6.04671ZM1.11604 7.10401H17.884V8.18337H1.11604V7.10401ZM16.1396 12.0696H13.6965L14.0693 9.24067H16.8595L16.1396 12.0696ZM10.0588 15.9592V13.1269H12.4324L12.0591 15.9592H10.0588ZM6.94228 15.9592L6.56867 13.1269H8.94274V15.9592H6.94228ZM2.14097 9.24067H4.93137L5.30453 12.0696H2.85922L2.14097 9.24067ZM6.05603 9.24067H8.94274V12.0696H6.4292L6.05603 9.24067ZM10.0588 12.0696V9.24067H12.9446L12.5718 12.0696H10.0588ZM3.12762 13.1269H5.44396L5.81757 15.9592H3.84672L3.12762 13.1269ZM15.1498 15.9592H13.1838L13.5571 13.1269H15.8706L15.1498 15.9592Z" fill="#0B1437"/>
</svg>
