<svg width="42" height="42" viewBox="0 0 42 42" fill="none" xmlns="http://www.w3.org/2000/svg">
<circle cx="21" cy="21" r="20.5" fill="#0B1437"/>
<circle cx="21" cy="21" r="20.5" stroke="#848484"/>
<circle cx="21" cy="21" r="20.5" stroke="#848484"/>
<circle cx="21" cy="21" r="20.5" stroke="#848484"/>
<circle cx="21" cy="21" r="20.5" stroke="#848484"/>
<circle cx="21" cy="21" r="20.5" stroke="#848484"/>
<path d="M20.5 18.4531C18.8037 18.4531 17.4238 19.833 17.4238 21.5293C17.4238 23.2256 18.8037 24.6055 20.5 24.6055C22.1963 24.6055 23.5762 23.2256 23.5762 21.5293C23.5762 19.833 22.1963 18.4531 20.5 18.4531ZM20.5 18.4531C18.8037 18.4531 17.4238 19.833 17.4238 21.5293C17.4238 23.2256 18.8037 24.6055 20.5 24.6055C22.1963 24.6055 23.5762 23.2256 23.5762 21.5293C23.5762 19.833 22.1963 18.4531 20.5 18.4531ZM25.8027 14H15.1973C13.9844 14 13 14.9844 13 16.1973V26.8027C13 28.0156 13.9844 29 15.1973 29H25.8027C27.0156 29 28 28.0156 28 26.8027V16.1973C28 14.9844 27.0156 14 25.8027 14ZM20.5 25.4844C18.3203 25.4844 16.5449 23.709 16.5449 21.5293C16.5449 19.3496 18.3203 17.5742 20.5 17.5742C22.6797 17.5742 24.4551 19.3496 24.4551 21.5293C24.4551 23.709 22.6797 25.4844 20.5 25.4844ZM25.334 17.5742C24.8506 17.5742 24.4551 17.1787 24.4551 16.6953C24.4551 16.2119 24.8506 15.8164 25.334 15.8164C25.8174 15.8164 26.2129 16.2119 26.2129 16.6953C26.2129 17.1787 25.8174 17.5742 25.334 17.5742ZM20.5 18.4531C18.8037 18.4531 17.4238 19.833 17.4238 21.5293C17.4238 23.2256 18.8037 24.6055 20.5 24.6055C22.1963 24.6055 23.5762 23.2256 23.5762 21.5293C23.5762 19.833 22.1963 18.4531 20.5 18.4531ZM20.5 18.4531C18.8037 18.4531 17.4238 19.833 17.4238 21.5293C17.4238 23.2256 18.8037 24.6055 20.5 24.6055C22.1963 24.6055 23.5762 23.2256 23.5762 21.5293C23.5762 19.833 22.1963 18.4531 20.5 18.4531ZM20.5 18.4531C18.8037 18.4531 17.4238 19.833 17.4238 21.5293C17.4238 23.2256 18.8037 24.6055 20.5 24.6055C22.1963 24.6055 23.5762 23.2256 23.5762 21.5293C23.5762 19.833 22.1963 18.4531 20.5 18.4531Z" fill="white"/>
</svg>
