<svg width="20" height="20" viewBox="0 0 20 20" fill="none" xmlns="http://www.w3.org/2000/svg">
<g clip-path="url(#clip0)">
<path d="M17.9341 7.04671H16.0141L13.3418 2.26479C13.1976 2.00677 12.86 1.90834 12.5876 2.04494C12.3152 2.18154 12.2113 2.50148 12.3555 2.7595L14.7514 7.04671H4.24537L6.64125 2.7595C6.78544 2.50148 6.68154 2.18154 6.40919 2.04494C6.13691 1.90837 5.79912 2.00677 5.65493 2.26479L2.98258 7.04671H1.06593C0.478185 7.04671 0 7.49972 0 8.05653V9.23088C0 9.76425 0.438826 10.2021 0.992419 10.238L2.86446 17.6115C2.92477 17.8491 3.14909 18.0165 3.40701 18.0165H15.5893C15.8471 18.0165 16.0714 17.8492 16.1318 17.6118L18.0082 10.238C18.5615 10.2017 19 9.76404 19 9.23088V8.05653C19 7.49972 18.5219 7.04671 17.9341 7.04671ZM1.11604 8.10401H17.884V9.18337H1.11604V8.10401ZM16.1396 13.0696H13.6965L14.0693 10.2407H16.8595L16.1396 13.0696ZM10.0588 16.9592V14.1269H12.4324L12.0591 16.9592H10.0588ZM6.94228 16.9592L6.56867 14.1269H8.94274V16.9592H6.94228ZM2.14097 10.2407H4.93137L5.30453 13.0696H2.85922L2.14097 10.2407ZM6.05603 10.2407H8.94274V13.0696H6.4292L6.05603 10.2407ZM10.0588 13.0696V10.2407H12.9446L12.5718 13.0696H10.0588ZM3.12762 14.1269H5.44396L5.81757 16.9592H3.84672L3.12762 14.1269ZM15.1498 16.9592H13.1838L13.5571 14.1269H15.8706L15.1498 16.9592Z" fill="white"/>
</g>
<defs>
<clipPath id="clip0">
<rect width="19" height="18" fill="white" transform="translate(0 1)"/>
</clipPath>
</defs>
</svg>
