<svg width="20" height="20" viewBox="0 0 20 20" fill="none" xmlns="http://www.w3.org/2000/svg">
<path d="M3.04804 10.0153C2.18329 11.0954 1.70703 12.4667 1.70703 13.8768C1.70703 17.253 4.4538 19.9998 7.83002 19.9998C11.2062 19.9998 13.953 17.253 13.953 13.8768C13.953 12.4667 13.4767 11.0953 12.612 10.0153L7.83006 4.04297L3.04804 10.0153ZM12.8398 13.8768C12.8398 16.6392 10.5924 18.8865 7.83006 18.8865C5.0677 18.8865 2.82034 16.6392 2.82034 13.8768C2.82034 12.7187 3.20983 11.5944 3.9171 10.7112L7.83006 5.82416L11.743 10.7112C12.4502 11.5944 12.8398 12.7187 12.8398 13.8768Z" fill="white"/>
<path d="M5.04686 13.877H3.93359C3.93359 16.0255 5.68154 17.7734 7.83004 17.7734V16.6601C6.29536 16.6601 5.04686 15.4116 5.04686 13.877Z" fill="white"/>
<path d="M17.2929 5.49038C17.2929 4.85136 17.0831 4.25142 16.6861 3.7552L14.5097 1L12.3334 3.75523C11.9364 4.25142 11.7266 4.8514 11.7266 5.49041C11.7266 7.02506 12.9751 8.27359 14.5097 8.27359C16.0444 8.27359 17.2929 7.02502 17.2929 5.49038ZM12.8398 5.49038C12.8398 5.10641 12.9656 4.74653 13.2035 4.44958L14.5097 2.796L15.8159 4.44958C16.0539 4.74649 16.1796 5.10637 16.1796 5.49038C16.1796 6.41116 15.4305 7.16028 14.5097 7.16028C13.589 7.16028 12.8398 6.41116 12.8398 5.49038Z" fill="white"/>
</svg>
