<svg width="20" height="20" viewBox="0 0 20 20" fill="none" xmlns="http://www.w3.org/2000/svg">
<path d="M18.3774 9.6656C17.5202 10.5123 16.45 11.311 15.3132 12.151C15.3993 11.649 15.4803 11.1312 15.5635 10.5987C15.8205 8.95494 16.0861 7.25525 16.5673 5.6281L17.0841 3.88016L15.6442 4.99766C14.2911 6.04774 13.4773 7.34673 12.8768 8.77814C12.2856 5.83282 11.0163 3.27555 10.5261 2.28817L9.99807 1.22461L9.47334 2.28981C8.98416 3.28282 7.71845 5.85282 7.12744 8.78795C6.5265 7.35263 5.71196 6.05009 4.35559 4.99766L2.91536 3.88008L3.43255 5.62817C3.91403 7.25556 4.17962 8.95537 4.43649 10.5992C4.5197 11.1315 4.60063 11.649 4.68673 12.1509C3.55005 11.3109 2.47981 10.5122 1.62266 9.66556L0 8.06279L0.646954 10.25C1.6311 13.577 2.4179 15.6298 3.75505 16.9474C4.93251 18.1077 6.50462 18.6533 9.05392 18.7559L9.04455 18.7743H10.9555L10.9461 18.7559C13.4953 18.6533 15.0675 18.1077 16.245 16.9474C17.5821 15.6298 18.3689 13.577 19.353 10.25L20 8.06279L18.3774 9.6656ZM12.9419 12.2787C13.4798 10.4594 13.966 8.81552 14.9116 7.45896C14.7104 8.45212 14.5553 9.44424 14.4033 10.4173C14.2496 11.4007 14.1033 12.3327 13.9202 13.1899C13.3397 13.6324 12.7698 14.0865 12.2317 14.5621C12.501 13.7692 12.7275 13.0037 12.9419 12.2787ZM7.05841 12.279C7.27283 13.004 7.49931 13.7695 7.76865 14.5624C7.23037 14.0866 6.66036 13.6324 6.0797 13.1898C5.89669 12.3328 5.75044 11.401 5.59685 10.4179C5.44482 9.44474 5.2897 8.4522 5.08845 7.45892C6.03415 8.81556 6.5204 10.4597 7.05841 12.279ZM4.57934 16.1109C3.69692 15.2414 3.05004 13.8634 2.38715 11.8842C2.93864 12.3197 3.52251 12.751 4.12278 13.1944C5.93099 14.5302 7.79177 15.9047 8.95177 17.5776C6.7929 17.4783 5.52321 17.041 4.57934 16.1109ZM10.0001 16.9327C9.14814 15.204 8.65904 13.5502 8.18462 11.946C8.12216 11.7347 8.0599 11.5243 7.99716 11.3151C8.09865 8.46552 9.23064 5.59657 10.0021 3.90797C10.7737 5.58684 11.9037 8.44005 12.0059 11.3059C11.9423 11.518 11.8792 11.7313 11.8158 11.9456C11.3414 13.5498 10.8523 15.2035 10.0001 16.9327ZM15.4207 16.1109C14.4768 17.041 13.2071 17.4784 11.0483 17.5775C12.2083 15.9048 14.0691 14.5301 15.8773 13.1944C16.4775 12.751 17.0614 12.3196 17.6129 11.8841C16.95 13.8634 16.3032 15.2414 15.4207 16.1109Z" fill="white"/>
</svg>
