<svg width="36" height="36" viewBox="0 0 36 36" fill="none" xmlns="http://www.w3.org/2000/svg">
<circle cx="18" cy="18" r="17.5" stroke="#0B1437"/>
<path d="M19.2445 10C14.3103 10.0008 11.6875 13.162 11.6875 16.609C11.6875 18.2073 12.5808 20.2015 14.011 20.8338C14.419 21.0175 14.365 20.7933 14.716 19.4508C14.7438 19.339 14.7295 19.2423 14.6395 19.138C12.595 16.7733 14.2405 11.9118 18.9528 11.9118C25.7725 11.9118 24.4983 21.3483 20.1392 21.3483C19.0157 21.3483 18.1788 20.4663 18.4435 19.375C18.7645 18.0753 19.393 16.678 19.393 15.7413C19.393 13.3803 15.8755 13.7305 15.8755 16.8588C15.8755 17.8255 16.2175 18.478 16.2175 18.478C16.2175 18.478 15.0857 23.05 14.8758 23.9043C14.5202 25.3503 14.9237 27.691 14.959 27.8928C14.9808 28.0038 15.1053 28.039 15.175 27.9475C15.2868 27.8013 16.6547 25.8498 17.038 24.439C17.1775 23.9253 17.7498 21.8403 17.7498 21.8403C18.127 22.5213 19.2145 23.0913 20.3733 23.0913C23.8203 23.0913 26.3118 20.0613 26.3118 16.3015C26.2998 12.697 23.215 10 19.2445 10V10Z" fill="black"/>
</svg>
