<svg width="119" height="21" viewBox="0 0 119 21" fill="none" xmlns="http://www.w3.org/2000/svg">
<path d="M0 20.3337V6.25486C0 6.06142 0.0630434 5.90378 0.189128 5.78199C0.32263 5.65301 0.485799 5.58855 0.678638 5.58855H2.8258C3.01864 5.58855 3.1781 5.65301 3.30418 5.78199C3.43767 5.90378 3.50443 6.06142 3.50443 6.25486V6.57726C4.67627 5.77483 6.03726 5.37358 7.5874 5.37358C9.1375 5.37358 10.4317 5.90378 11.4701 6.96419C12.5084 8.01739 13.0276 9.52918 13.0276 11.4995C13.0276 13.4626 12.4899 14.9672 11.4145 16.0133C10.339 17.0594 8.88904 17.5824 7.06451 17.5824C6.12258 17.5824 5.05084 17.3997 3.84931 17.0343V20.3337C3.84931 20.5271 3.78258 20.6847 3.64906 20.8066C3.52299 20.9355 3.36353 21 3.17068 21H0.678638C0.485799 21 0.32263 20.9355 0.189128 20.8066C0.0630434 20.6847 0 20.5271 0 20.3337ZM3.84931 14.5517C4.80607 14.8455 5.6108 14.9923 6.26348 14.9923C7.27959 14.9923 7.999 14.7129 8.42178 14.154C8.85193 13.5952 9.06705 12.7032 9.06705 11.478C9.06705 10.2528 8.86307 9.36438 8.45516 8.8127C8.05466 8.25385 7.45018 7.97442 6.64174 7.97442C5.84074 7.97442 4.9099 8.29682 3.84931 8.94165V14.5517ZM13.263 12.413V6.25486C13.263 6.06142 13.3261 5.90378 13.4521 5.78199C13.5857 5.65301 13.7488 5.58855 13.9416 5.58855H16.4337C16.6266 5.58855 16.786 5.65301 16.9121 5.78199C17.0456 5.90378 17.1123 6.06142 17.1123 6.25486V12.413C17.1123 14.1325 17.8169 14.9923 19.2261 14.9923C20.1532 14.9923 21.1508 14.4764 22.2188 13.4447V6.25486C22.2188 6.06142 22.2819 5.90378 22.4079 5.78199C22.5414 5.65301 22.7046 5.58855 22.8974 5.58855H25.3784C25.5786 5.58855 25.7418 5.65301 25.8679 5.78199C26.0014 5.90378 26.0681 6.06142 26.0681 6.25486V16.7118C26.0681 16.8981 26.0014 17.0558 25.8679 17.1848C25.7418 17.3065 25.5786 17.3674 25.3784 17.3674H22.8974C22.7046 17.3674 22.5414 17.3065 22.4079 17.1848C22.2819 17.0558 22.2188 16.8981 22.2188 16.7118V16.024C20.9431 17.0629 19.5821 17.5824 18.1359 17.5824C16.697 17.5824 15.5251 17.1597 14.6203 16.3142C13.7154 15.4616 13.263 14.1612 13.263 12.413ZM35.4262 8.3183L33.7129 8.25385C32.7117 8.25385 31.7549 8.78401 30.8426 9.84442V16.7118C30.8426 16.9053 30.7758 17.0629 30.6424 17.1848C30.5163 17.3065 30.3568 17.3674 30.164 17.3674H27.6719C27.4717 17.3674 27.3085 17.3065 27.1824 17.1848C27.0563 17.0629 26.9933 16.9053 26.9933 16.7118V6.25486C26.9933 6.06142 27.0563 5.90378 27.1824 5.78199C27.3159 5.65301 27.4791 5.58855 27.6719 5.58855H30.164C30.3642 5.58855 30.5274 5.65301 30.6535 5.78199C30.7796 5.90378 30.8426 6.06142 30.8426 6.25486V6.93194C31.5991 6.40174 32.326 6.01125 33.0232 5.76047C33.7277 5.50257 34.6474 5.37358 35.7822 5.37358C35.9823 5.37358 36.1458 5.43807 36.2716 5.56703C36.4051 5.68885 36.472 5.84289 36.472 6.02917V7.66275C36.472 7.85619 36.4051 8.01383 36.2716 8.13562C36.1458 8.25741 35.9823 8.3183 35.7822 8.3183H35.4262ZM37.1635 16.0133C36.0214 14.9672 35.4502 13.4626 35.4502 11.4995C35.4502 9.52918 36.025 8.01739 37.1747 6.96419C38.3244 5.90378 39.9189 5.37358 41.9583 5.37358C43.9981 5.37358 45.589 5.88946 46.7311 6.92118C47.8732 7.94574 48.4443 9.41812 48.4443 11.3383V11.9509C48.4443 12.1443 48.3777 12.3055 48.2443 12.4345C48.1181 12.5563 47.955 12.6172 47.7546 12.6172H39.3775C39.4517 13.4985 39.7113 14.1397 40.1562 14.5409C40.6086 14.9422 41.328 15.1428 42.3146 15.1428C43.3008 15.1428 43.976 14.9278 44.3391 14.4979C44.7026 14.0681 45.1514 13.8495 45.6856 13.8424H47.343C47.5434 13.8424 47.7065 13.9068 47.8327 14.0358C47.9662 14.1576 48.0327 14.3153 48.0327 14.5087C48.0327 16.565 46.0042 17.5895 41.9475 17.5824C39.9001 17.5824 38.3056 17.0594 37.1635 16.0133ZM39.3551 10.3495H44.5283C44.4541 8.65866 43.5937 7.81319 41.9475 7.81319C40.3081 7.81319 39.4441 8.65866 39.3551 10.3495ZM54.144 8.84494C54.144 6.53069 56.0763 5.37358 59.9403 5.37358C64.0046 5.37358 66.0371 6.40174 66.0371 8.45802C66.0371 8.6443 65.9738 8.80194 65.848 8.93092C65.7217 9.05271 65.5586 9.11361 65.3583 9.11361H63.7008C63.1666 9.11361 62.7178 8.89868 62.3543 8.46878C61.9912 8.03172 61.2755 7.81319 60.2072 7.81319C58.7389 7.81319 58.0047 8.15711 58.0047 8.84494C58.0047 9.16734 58.29 9.43604 58.8611 9.65097C59.4398 9.8659 60.1406 10.0558 60.9638 10.2206C61.7945 10.3782 62.6216 10.5824 63.4447 10.8332C64.2679 11.0839 64.9651 11.4852 65.5362 12.0368C66.1149 12.5814 66.4042 13.2728 66.4042 14.111C66.4042 16.4253 64.3644 17.5824 60.2853 17.5824C56.2058 17.5824 54.1664 16.5578 54.1664 14.5087C54.1664 14.3153 54.2294 14.1576 54.3556 14.0358C54.489 13.9068 54.6557 13.8424 54.8561 13.8424H56.5139C57.0477 13.8424 57.4966 14.0609 57.86 14.4979C58.2235 14.9278 58.9392 15.1428 60.0072 15.1428C61.7055 15.1428 62.5547 14.7989 62.5547 14.111C62.5547 13.7886 62.2654 13.5199 61.6871 13.305C61.116 13.09 60.4151 12.9002 59.5844 12.7354C58.7537 12.5634 57.9266 12.3557 57.1034 12.1121C56.2875 11.8613 55.5903 11.4601 55.012 10.9084C54.4333 10.3567 54.144 9.66889 54.144 8.84494ZM66.6505 12.413V6.25486C66.6505 6.06142 66.7138 5.90378 66.8396 5.78199C66.9731 5.65301 67.1365 5.58855 67.3293 5.58855H69.8211C70.0142 5.58855 70.1737 5.65301 70.2996 5.78199C70.433 5.90378 70.4999 6.06142 70.4999 6.25486V12.413C70.4999 14.1325 71.2045 14.9923 72.6138 14.9923C73.5408 14.9923 74.5382 14.4764 75.6066 13.4447V6.25486C75.6066 6.06142 75.6695 5.90378 75.7957 5.78199C75.9292 5.65301 76.0923 5.58855 76.285 5.58855H78.766C78.9663 5.58855 79.1295 5.65301 79.2553 5.78199C79.3891 5.90378 79.4557 6.06142 79.4557 6.25486V16.7118C79.4557 16.8981 79.3891 17.0558 79.2553 17.1848C79.1295 17.3065 78.9663 17.3674 78.766 17.3674H76.285C76.0923 17.3674 75.9292 17.3065 75.7957 17.1848C75.6695 17.0558 75.6066 16.8981 75.6066 16.7118V16.024C74.3306 17.0629 72.9697 17.5824 71.5234 17.5824C70.0848 17.5824 68.9126 17.1597 68.0078 16.3142C67.1029 15.4616 66.6505 14.1612 66.6505 12.413ZM92.6742 16.8946C92.6742 17.2098 92.4815 17.3674 92.0956 17.3674H89.9929C89.2812 17.3674 88.7137 17.0307 88.291 16.3572L86.878 14.1325C86.2697 13.1796 85.3872 12.7032 84.2303 12.7032V16.7118C84.2303 16.9053 84.1634 17.0629 84.0299 17.1848C83.9037 17.3065 83.7446 17.3674 83.5514 17.3674H81.0596C80.8593 17.3674 80.6962 17.3065 80.5699 17.1848C80.4441 17.0629 80.3808 16.9053 80.3808 16.7118V2.62231C80.3808 2.42886 80.4441 2.27124 80.5699 2.14944C80.7034 2.02047 80.8669 1.95599 81.0596 1.95599H83.5514C83.7518 1.95599 83.9149 2.02047 84.0411 2.14944C84.1673 2.27124 84.2303 2.42886 84.2303 2.62231V10.2528C85.5207 10.2528 86.4035 9.7692 86.878 8.80194L87.9459 6.60951C88.0942 6.30143 88.313 6.05426 88.6023 5.86797C88.8917 5.68169 89.2031 5.58855 89.5369 5.58855H91.6395C92.0106 5.58855 92.1958 5.72826 92.1958 6.00768C92.1958 6.16529 92.1365 6.36593 92.0178 6.60951L90.5828 9.53274C90.3379 10.0199 90.0041 10.4391 89.5813 10.7902C89.1586 11.1412 88.7025 11.3669 88.2132 11.4672C89.1253 11.7323 89.9152 12.3772 90.5828 13.4017L92.4739 16.3572C92.6001 16.565 92.6666 16.7441 92.6742 16.8946ZM92.4645 12.413V6.25486C92.4645 5.81064 92.6909 5.58855 93.1433 5.58855H95.6355C96.0876 5.58855 96.314 5.81064 96.314 6.25486V12.413C96.314 14.1325 97.0185 14.9923 98.4278 14.9923C99.3548 14.9923 100.352 14.4764 101.421 13.4447V6.25486C101.421 5.81064 101.647 5.58855 102.099 5.58855H104.58C105.04 5.58855 105.27 5.81064 105.27 6.25486V16.7118C105.27 17.1489 105.04 17.3674 104.58 17.3674H102.099C101.647 17.3674 101.421 17.1489 101.421 16.7118V16.024C100.13 17.0629 98.8318 17.5824 97.5266 17.5824C95.9469 17.5824 94.7306 17.1812 93.8775 16.3787C92.9357 15.4688 92.4645 14.1469 92.4645 12.413ZM97.8604 3.25639L98.4054 1.23592C98.6947 0.411974 99.1805 0 99.8629 0H100.875C101.357 0 101.676 0.146878 101.832 0.440633C101.891 0.555271 101.921 0.698568 101.921 0.87052C101.921 1.04248 101.843 1.23592 101.687 1.45087L100.486 3.4821C100.07 4.15558 99.6144 4.49233 99.1175 4.49233H98.5946C98.0459 4.49233 97.7714 4.25588 97.7714 3.78301C97.7714 3.6397 97.8011 3.46418 97.8604 3.25639ZM106.195 16.7118V6.25486C106.195 6.06142 106.258 5.90378 106.384 5.78199C106.517 5.65301 106.681 5.58855 106.874 5.58855H109.365C109.559 5.58855 109.718 5.65301 109.844 5.78199C109.977 5.90378 110.044 6.06142 110.044 6.25486V6.93194C111.32 5.89302 112.677 5.37358 114.116 5.37358C115.562 5.37358 116.738 5.79988 117.643 6.65251C118.548 7.49795 119 8.79477 119 10.543V16.7118C119 16.8981 118.933 17.0558 118.8 17.1848C118.674 17.3065 118.511 17.3674 118.31 17.3674H115.829C115.637 17.3674 115.473 17.3065 115.34 17.1848C115.214 17.0558 115.151 16.8981 115.151 16.7118V10.543C115.151 8.83058 114.442 7.97442 113.026 7.97442C112.099 7.97442 111.105 8.4867 110.044 9.51126V16.7118C110.044 16.8981 109.977 17.0558 109.844 17.1848C109.718 17.3065 109.559 17.3674 109.365 17.3674H106.874C106.681 17.3674 106.517 17.3065 106.384 17.1848C106.258 17.0558 106.195 16.8981 106.195 16.7118Z" fill="white"/>
</svg>
