<svg width="36" height="36" viewBox="0 0 36 36" fill="none" xmlns="http://www.w3.org/2000/svg">
<circle cx="18" cy="18" r="17.5" stroke="#0B1437"/>
<g clip-path="url(#clip0)">
<path d="M17.5711 15.817C16.1172 15.817 14.9344 16.9997 14.9344 18.4537C14.9344 19.9076 16.1172 21.0904 17.5711 21.0904C19.0251 21.0904 20.2079 19.9076 20.2079 18.4537C20.2079 16.9997 19.0251 15.817 17.5711 15.817ZM17.5711 15.817C16.1172 15.817 14.9344 16.9997 14.9344 18.4537C14.9344 19.9076 16.1172 21.0904 17.5711 21.0904C19.0251 21.0904 20.2079 19.9076 20.2079 18.4537C20.2079 16.9997 19.0251 15.817 17.5711 15.817ZM22.1164 12H13.0259C11.9863 12 11.1426 12.8438 11.1426 13.8834V22.9738C11.1426 24.0134 11.9863 24.8571 13.0259 24.8571H22.1164C23.156 24.8571 23.9997 24.0134 23.9997 22.9738V13.8834C23.9997 12.8438 23.156 12 22.1164 12ZM17.5711 21.8438C15.7029 21.8438 14.1811 20.322 14.1811 18.4537C14.1811 16.5854 15.7029 15.0636 17.5711 15.0636C19.4394 15.0636 20.9612 16.5854 20.9612 18.4537C20.9612 20.322 19.4394 21.8438 17.5711 21.8438ZM21.7146 15.0636C21.3002 15.0636 20.9612 14.7246 20.9612 14.3103C20.9612 13.8959 21.3002 13.5569 21.7146 13.5569C22.1289 13.5569 22.4679 13.8959 22.4679 14.3103C22.4679 14.7246 22.1289 15.0636 21.7146 15.0636ZM17.5711 15.817C16.1172 15.817 14.9344 16.9997 14.9344 18.4537C14.9344 19.9076 16.1172 21.0904 17.5711 21.0904C19.0251 21.0904 20.2079 19.9076 20.2079 18.4537C20.2079 16.9997 19.0251 15.817 17.5711 15.817ZM17.5711 15.817C16.1172 15.817 14.9344 16.9997 14.9344 18.4537C14.9344 19.9076 16.1172 21.0904 17.5711 21.0904C19.0251 21.0904 20.2079 19.9076 20.2079 18.4537C20.2079 16.9997 19.0251 15.817 17.5711 15.817ZM17.5711 15.817C16.1172 15.817 14.9344 16.9997 14.9344 18.4537C14.9344 19.9076 16.1172 21.0904 17.5711 21.0904C19.0251 21.0904 20.2079 19.9076 20.2079 18.4537C20.2079 16.9997 19.0251 15.817 17.5711 15.817Z" fill="#0B1437"/>
</g>
<defs>
<clipPath id="clip0">
<rect width="12.8571" height="12.8571" fill="white" transform="translate(11.1426 12)"/>
</clipPath>
</defs>
</svg>
