<svg width="36" height="36" viewBox="0 0 36 36" fill="none" xmlns="http://www.w3.org/2000/svg">
<circle cx="18" cy="18" r="17.5" stroke="#0B1437"/>
<g clip-path="url(#clip0)">
<path d="M25.429 13.1616C24.8659 13.4086 24.2658 13.5724 23.6402 13.6519C24.2838 13.2676 24.775 12.6638 25.0059 11.936C24.4059 12.2938 23.7434 12.5465 23.0374 12.6875C22.4676 12.0808 21.6556 11.7051 20.7697 11.7051C19.051 11.7051 17.6673 13.1001 17.6673 14.8103C17.6673 15.0564 17.6882 15.293 17.7393 15.5182C15.1583 15.3924 12.8746 14.1554 11.3405 12.271C11.0726 12.7357 10.9155 13.2676 10.9155 13.8402C10.9155 14.9154 11.4692 15.8684 12.2945 16.4202C11.7957 16.4107 11.3064 16.2659 10.8918 16.0378C10.8918 16.0473 10.8918 16.0596 10.8918 16.0719C10.8918 17.5805 11.9679 18.8336 13.3791 19.1222C13.1264 19.1913 12.851 19.2245 12.5651 19.2245C12.3664 19.2245 12.1657 19.2131 11.9774 19.1715C12.3796 20.4009 13.521 21.3047 14.8782 21.334C13.822 22.1603 12.4809 22.6581 11.0291 22.6581C10.7745 22.6581 10.5303 22.6467 10.2861 22.6155C11.6613 23.5023 13.291 24.0086 15.0486 24.0086C20.7612 24.0086 23.8844 19.2765 23.8844 15.1747C23.8844 15.0375 23.8797 14.905 23.8731 14.7734C24.4892 14.3361 25.0069 13.7901 25.429 13.1616Z" fill="#0B1437"/>
</g>
<defs>
<clipPath id="clip0">
<rect width="15.1429" height="15.1429" fill="white" transform="translate(10.2861 10.2852)"/>
</clipPath>
</defs>
</svg>
