<svg width="40" height="40" viewBox="0 0 40 40" fill="none" xmlns="http://www.w3.org/2000/svg">
<circle cx="20" cy="20" r="19.5" fill="#0B1437"/>
<circle cx="20" cy="20" r="19.5" stroke="#848484"/>
<circle cx="20" cy="20" r="19.5" stroke="#848484"/>
<circle cx="20" cy="20" r="19.5" stroke="#848484"/>
<circle cx="20" cy="20" r="19.5" stroke="#848484"/>
<circle cx="20" cy="20" r="19.5" stroke="#848484"/>
<path d="M28.1636 13.333H11.8371C11.4763 13.333 11.1302 13.4835 10.8751 13.7514C10.6199 14.0193 10.4766 14.3827 10.4766 14.7616V26.1902C10.4766 26.569 10.6199 26.9324 10.8751 27.2003C11.1302 27.4682 11.4763 27.6187 11.8371 27.6187H28.1636C28.5245 27.6187 28.8705 27.4682 29.1257 27.2003C29.3808 26.9324 29.5242 26.569 29.5242 26.1902V14.7616C29.5242 14.3827 29.3808 14.0193 29.1257 13.7514C28.8705 13.4835 28.5245 13.333 28.1636 13.333ZM26.667 14.7616L20.0004 19.6044L13.3337 14.7616H26.667ZM11.8371 26.1902V15.4116L19.6126 21.0616C19.7265 21.1445 19.8618 21.189 20.0004 21.189C20.139 21.189 20.2743 21.1445 20.3881 21.0616L28.1636 15.4116V26.1902H11.8371Z" fill="white"/>
</svg>
