<svg width="20" height="20" viewBox="0 0 20 20" fill="none" xmlns="http://www.w3.org/2000/svg">
<path d="M10.6033 12.0985C10.6033 12.4593 10.3109 12.7517 9.95007 12.7517C9.58945 12.7517 9.29688 12.4593 9.29688 12.0985C9.29688 11.7379 9.58945 11.4453 9.95007 11.4453C10.3109 11.4453 10.6033 11.7379 10.6033 12.0985Z" fill="white"/>
<path d="M9.94938 5.14844C8.62342 5.14844 7.54785 6.22145 7.54785 7.54996V7.55081C7.54785 7.91143 7.84026 8.20367 8.20105 8.20367C8.56184 8.20367 8.85425 7.91075 8.85425 7.54996C8.85425 6.94609 9.34262 6.45483 9.95023 6.45483C10.5544 6.45483 11.046 6.94643 11.046 7.55081C11.046 8.15502 10.5544 8.64662 9.95023 8.64662C9.58944 8.64662 9.29703 8.9392 9.29703 9.29982V9.99946C9.29703 10.3602 9.58944 10.6527 9.95023 10.6527C10.3108 10.6527 10.6034 10.3602 10.6034 9.99946V9.86286C11.6116 9.5776 12.3524 8.649 12.3524 7.55081C12.3524 6.22604 11.2748 5.14844 9.94938 5.14844Z" fill="white"/>
<path d="M14.1479 2H5.75211C4.23206 2 3 3.22985 3 4.75211V17.3457C3 17.88 3.61271 18.1925 4.04512 17.8683L6.66948 15.9H14.1479C15.668 15.9 16.9 14.6702 16.9 13.1479V4.75211C16.9 3.23206 15.6702 2 14.1479 2V2ZM15.5936 13.1479C15.5936 13.9471 14.9474 14.5936 14.1479 14.5936H6.45175C6.31039 14.5936 6.17295 14.6396 6.05983 14.7243L4.3064 16.0393V4.75211C4.3064 3.95296 4.95262 3.3064 5.75211 3.3064H14.1479C14.9471 3.3064 15.5936 3.95262 15.5936 4.75211V13.1479Z" fill="white"/>
</svg>
