<svg width="14" height="14" viewBox="0 0 14 14" fill="none" xmlns="http://www.w3.org/2000/svg">
<path d="M11.2832 9.436L9.24106 9.02627C9.02453 8.9824 8.8668 8.79013 8.8668 8.56893V8.036C10.9061 7.84187 11.2001 7.42467 11.2001 7C11.2001 5.74467 10.3657 2.82987 10.2276 2.35573C10.2108 1.62307 10.0764 1.21053 9.74133 0.850267C9.50426 0.5936 9.15613 0.533867 8.8752 0.486267C8.76506 0.466667 8.61293 0.441467 8.55693 0.410667C8.05946 0.140933 7.5676 0.0112 6.98053 0C5.75133 0.0504 4.24026 0.832533 3.7232 2.2624C3.68586 2.39587 2.80013 5.5524 2.80013 7C2.80013 7.60387 3.48333 7.92213 5.13346 8.06773V8.56893C5.13346 8.79013 4.97573 8.9824 4.75826 9.02627L2.71893 9.43507C1.41413 9.69173 0.466797 10.8463 0.466797 12.18V13.0667C0.466797 13.5809 0.885864 14 1.40013 14H12.6001C13.1144 14 13.5335 13.5809 13.5335 13.0667V12.18C13.5335 10.8463 12.5861 9.69173 11.2832 9.436Z" fill="#0B1437"/>
</svg>
