<svg width="55" height="55" viewBox="0 0 55 55" fill="none" xmlns="http://www.w3.org/2000/svg">
<path fill-rule="evenodd" clip-rule="evenodd" d="M0 27.5C0 20.2065 2.89731 13.2118 8.05456 8.05456C13.2118 2.89731 20.2065 0 27.5 0C34.7935 0 41.7882 2.89731 46.9454 8.05456C52.1027 13.2118 55 20.2065 55 27.5C55 34.7935 52.1027 41.7882 46.9454 46.9454C41.7882 52.1027 34.7935 55 27.5 55C20.2065 55 13.2118 52.1027 8.05456 46.9454C2.89731 41.7882 0 34.7935 0 27.5H0ZM25.9307 39.27L41.7633 19.4773L38.9033 17.1893L25.4027 34.0597L15.84 26.092L13.4933 28.908L25.9307 39.2737V39.27Z" fill="#60B236"/>
</svg>
