<svg width="42" height="42" viewBox="0 0 42 42" fill="none" xmlns="http://www.w3.org/2000/svg">
<circle cx="21" cy="21" r="20.5" fill="#0B1437"/>
<circle cx="21" cy="21" r="20.5" stroke="#848484"/>
<circle cx="21" cy="21" r="20.5" stroke="#848484"/>
<circle cx="21" cy="21" r="20.5" stroke="#848484"/>
<circle cx="21" cy="21" r="20.5" stroke="#848484"/>
<circle cx="21" cy="21" r="20.5" stroke="#848484"/>
<g clip-path="url(#clip0)">
<path d="M29.6667 15.3556C29.0097 15.6437 28.3096 15.8348 27.5798 15.9275C28.3306 15.4792 28.9037 14.7748 29.1731 13.9257C28.4731 14.343 27.7001 14.6379 26.8764 14.8024C26.2117 14.0946 25.2644 13.6562 24.2309 13.6562C22.2257 13.6562 20.6114 15.2838 20.6114 17.279C20.6114 17.5661 20.6357 17.8421 20.6953 18.1049C17.6842 17.9581 15.0199 16.5149 13.23 14.3165C12.9176 14.8587 12.7343 15.4792 12.7343 16.1472C12.7343 17.4016 13.3802 18.5135 14.343 19.1572C13.7611 19.1462 13.1903 18.9772 12.7067 18.7111C12.7067 18.7222 12.7067 18.7365 12.7067 18.7509C12.7067 20.5109 13.9621 21.9728 15.6084 22.3096C15.3136 22.3902 14.9923 22.4289 14.6588 22.4289C14.427 22.4289 14.1929 22.4156 13.9731 22.367C14.4424 23.8013 15.774 24.8558 17.3574 24.89C16.1252 25.854 14.5606 26.4348 12.8668 26.4348C12.5698 26.4348 12.2849 26.4215 12 26.3851C13.6044 27.4197 15.5057 28.0104 17.5562 28.0104C24.2209 28.0104 27.8647 22.4896 27.8647 17.7041C27.8647 17.544 27.8591 17.3894 27.8514 17.236C28.5702 16.7258 29.1742 16.0887 29.6667 15.3556Z" fill="white"/>
</g>
<defs>
<clipPath id="clip0">
<rect width="17.6667" height="17.6667" fill="white" transform="translate(12 12)"/>
</clipPath>
</defs>
</svg>
